<svg width="368" height="100" viewBox="0 0 368 100" fill="none" xmlns="http://www.w3.org/2000/svg">
<path d="M92.6529 84V62.584H110.202V84H104.372V67.3154H98.4684V84H92.6529ZM121.343 62.584C124.058 62.584 126.089 63.1748 127.437 64.3564C128.794 65.5381 129.473 67.2178 129.473 69.3955C129.473 70.3721 129.331 71.3096 129.048 72.208C128.774 73.1064 128.32 73.9072 127.686 74.6104C127.061 75.3135 126.226 75.8701 125.181 76.2803C124.146 76.6904 122.866 76.8955 121.343 76.8955H119.717V84H113.931V62.584H121.343ZM121.211 67.2568H119.717V72.1787H120.859C121.357 72.1787 121.821 72.0957 122.251 71.9297C122.681 71.7539 123.022 71.4756 123.276 71.0947C123.54 70.7041 123.672 70.1865 123.672 69.542C123.672 68.8682 123.472 68.3213 123.071 67.9014C122.671 67.4717 122.051 67.2568 121.211 67.2568ZM152.025 73.2627C152.025 74.9131 151.825 76.417 151.424 77.7744C151.034 79.1221 150.418 80.2842 149.579 81.2607C148.739 82.2373 147.66 82.9893 146.341 83.5166C145.023 84.0342 143.446 84.293 141.61 84.293C139.813 84.293 138.255 84.0342 136.937 83.5166C135.628 82.9893 134.549 82.2422 133.7 81.2754C132.85 80.2988 132.22 79.1318 131.81 77.7744C131.4 76.417 131.195 74.9033 131.195 73.2334C131.195 71.0068 131.561 69.0732 132.293 67.4326C133.036 65.7822 134.178 64.5078 135.721 63.6094C137.264 62.7012 139.237 62.2471 141.639 62.2471C144.08 62.2471 146.063 62.7012 147.586 63.6094C149.12 64.5176 150.243 65.7969 150.955 67.4473C151.668 69.0977 152.025 71.0361 152.025 73.2627ZM137.288 73.2627C137.288 74.5518 137.435 75.6602 137.728 76.5879C138.021 77.5156 138.485 78.2285 139.12 78.7266C139.754 79.2246 140.584 79.4736 141.61 79.4736C142.674 79.4736 143.519 79.2246 144.144 78.7266C144.779 78.2285 145.233 77.5156 145.506 76.5879C145.789 75.6602 145.931 74.5518 145.931 73.2627C145.931 71.3291 145.609 69.8008 144.964 68.6777C144.32 67.5547 143.211 66.9932 141.639 66.9932C140.594 66.9932 139.749 67.2471 139.105 67.7549C138.47 68.2627 138.006 68.9854 137.713 69.9229C137.43 70.8604 137.288 71.9736 137.288 73.2627ZM164.323 84L159.943 68.5752H159.811C159.85 68.9756 159.889 69.5176 159.929 70.2012C159.977 70.8848 160.021 71.6221 160.06 72.4131C160.099 73.2041 160.119 73.9658 160.119 74.6982V84H154.992V62.584H162.697L167.165 77.7891H167.282L171.662 62.584H179.382V84H174.064V74.6104C174.064 73.9365 174.074 73.2139 174.094 72.4424C174.123 71.6611 174.152 70.9287 174.181 70.2451C174.221 69.5518 174.255 69.0049 174.284 68.6045H174.152L169.831 84H164.323ZM203.135 73.2627C203.135 74.9131 202.935 76.417 202.534 77.7744C202.144 79.1221 201.529 80.2842 200.689 81.2607C199.849 82.2373 198.77 82.9893 197.451 83.5166C196.133 84.0342 194.556 84.293 192.72 84.293C190.923 84.293 189.365 84.0342 188.047 83.5166C186.738 82.9893 185.659 82.2422 184.81 81.2754C183.96 80.2988 183.33 79.1318 182.92 77.7744C182.51 76.417 182.305 74.9033 182.305 73.2334C182.305 71.0068 182.671 69.0732 183.404 67.4326C184.146 65.7822 185.288 64.5078 186.831 63.6094C188.374 62.7012 190.347 62.2471 192.749 62.2471C195.191 62.2471 197.173 62.7012 198.696 63.6094C200.23 64.5176 201.353 65.7969 202.066 67.4473C202.779 69.0977 203.135 71.0361 203.135 73.2627ZM188.399 73.2627C188.399 74.5518 188.545 75.6602 188.838 76.5879C189.131 77.5156 189.595 78.2285 190.23 78.7266C190.864 79.2246 191.695 79.4736 192.72 79.4736C193.784 79.4736 194.629 79.2246 195.254 78.7266C195.889 78.2285 196.343 77.5156 196.616 76.5879C196.9 75.6602 197.041 74.5518 197.041 73.2627C197.041 71.3291 196.719 69.8008 196.074 68.6777C195.43 67.5547 194.321 66.9932 192.749 66.9932C191.704 66.9932 190.86 67.2471 190.215 67.7549C189.58 68.2627 189.116 68.9854 188.823 69.9229C188.54 70.8604 188.399 71.9736 188.399 73.2627ZM228.177 79.2539V90.665H222.538V84H206.102V62.584H211.918V79.2539H217.865V62.584H223.68V79.2539H228.177ZM230.134 62.584H235.524V72.3838C235.524 72.8232 235.52 73.2871 235.51 73.7754C235.5 74.2539 235.485 74.7275 235.466 75.1963C235.446 75.665 235.422 76.1094 235.393 76.5293C235.363 76.9492 235.329 77.3203 235.29 77.6426H235.407L244.226 62.584H250.861V84H245.456V74.7275C245.456 74.3271 245.461 73.873 245.471 73.3652C245.49 72.8574 245.51 72.335 245.529 71.7979C245.559 71.2607 245.588 70.7432 245.617 70.2451C245.656 69.7471 245.695 69.3125 245.734 68.9414H245.603L236.784 84H230.134V62.584ZM254.605 62.584H259.996V72.3838C259.996 72.8232 259.991 73.2871 259.981 73.7754C259.971 74.2539 259.956 74.7275 259.937 75.1963C259.917 75.665 259.893 76.1094 259.864 76.5293C259.834 76.9492 259.8 77.3203 259.761 77.6426H259.878L268.697 62.584H275.332V84H269.927V74.7275C269.927 74.3271 269.932 73.873 269.942 73.3652C269.961 72.8574 269.981 72.335 270 71.7979C270.03 71.2607 270.059 70.7432 270.088 70.2451C270.127 69.7471 270.166 69.3125 270.205 68.9414H270.074L261.255 84H254.605V62.584Z" fill="white"/>
<rect x="109" width="34" height="39" fill="white"/>
<rect x="173" width="34" height="39" fill="white"/>
<rect x="237" width="34" height="39" fill="white"/>
</svg>
